<?xml version="1.0" encoding="UTF-8" standalone="no"?>
<!-- Created with Inkscape (http://www.inkscape.org/) -->

<svg
   xmlns:dc="http://purl.org/dc/elements/1.1/"
   xmlns:cc="http://creativecommons.org/ns#"
   xmlns:rdf="http://www.w3.org/1999/02/22-rdf-syntax-ns#"
   xmlns:svg="http://www.w3.org/2000/svg"
   xmlns="http://www.w3.org/2000/svg"
   xmlns:sodipodi="http://sodipodi.sourceforge.net/DTD/sodipodi-0.dtd"
   xmlns:inkscape="http://www.inkscape.org/namespaces/inkscape"
   width="16px"
   height="16px"
   viewBox="0 0 16 16"
   version="1.1"
   id="SVGRoot"
   inkscape:version="0.92.3 (2405546, 2018-03-11)"
   sodipodi:docname="desenhando (cópia).svg">
  <sodipodi:namedview
     id="base"
     pagecolor="#ffffff"
     bordercolor="#666666"
     borderopacity="1.0"
     inkscape:pageopacity="0.0"
     inkscape:pageshadow="2"
     inkscape:zoom="32.25"
     inkscape:cx="8"
     inkscape:cy="8"
     inkscape:document-units="px"
     inkscape:current-layer="layer1"
     showgrid="false"
     inkscape:window-width="1366"
     inkscape:window-height="704"
     inkscape:window-x="0"
     inkscape:window-y="27"
     inkscape:window-maximized="1"
     inkscape:grid-bbox="true" />
  <defs
     id="defs1498" />
  <metadata
     id="metadata1501">
    <rdf:RDF>
      <cc:Work
         rdf:about="">
        <dc:format>image/svg+xml</dc:format>
        <dc:type
           rdf:resource="http://purl.org/dc/dcmitype/StillImage" />
        <dc:title />
      </cc:Work>
    </rdf:RDF>
  </metadata>
  <g
     id="layer1"
     inkscape:groupmode="layer"
     inkscape:label="Camada 1">
    <path
       style="fill:#ffffff;fill-opacity:1;stroke-width:0.03066234"
       d="m 13.267961,6.9814169 c -0.05764,0.057679 -0.159335,0.1200901 -0.225995,0.1385638 -0.07902,0.021991 -0.566691,0.033929 -1.401351,0.034236 l -1.28015,8.593e-4 0.0013,4.1317431 c 0.0013,4.127324 0.0012,4.13186 -0.06227,4.236127 -0.08987,0.147515 -0.173632,0.210223 -0.3530795,0.26432 -0.1351571,0.04072 -0.434682,0.04613 -2.2076735,0.03934 -1.9405592,-0.0076 -2.0576068,-0.0109 -2.1680375,-0.0657 -0.1581462,-0.0785 -0.2601764,-0.221427 -0.2972243,-0.416405 -0.019666,-0.103469 -0.031354,-1.584998 -0.032206,-4.083039 L 5.2399025,7.3408573 4.159055,7.3398942 C 3.0228158,7.3390791 2.7440892,7.3208675 2.5617705,7.2343612 2.2541218,7.0884977 2.2563725,6.682926 2.5668363,6.3230394 2.6146783,6.2675634 3.113936,5.6149418 3.6763195,4.872723 5.5117011,2.4504161 6.8561069,0.73185507 7.1593726,0.42027594 7.3693152,0.20458841 7.4793922,0.15170121 7.7210689,0.15036369 7.9504135,0.14903711 8.1167148,0.2284872 8.3073345,0.43023078 8.4887458,0.62214491 13.125864,6.2260136 13.240088,6.391266 c 0.07896,0.1142007 0.108393,0.1931079 0.118837,0.3184844 0.0131,0.1569255 0.0078,0.1727627 -0.09092,0.2715253 z"
       id="path880"
       inkscape:connector-curvature="0"
       sodipodi:nodetypes="ccccscccccsccscsccccccc" />
  </g>
</svg>
