<?xml version="1.0" encoding="UTF-8" standalone="no"?>
<!-- Created with Inkscape (http://www.inkscape.org/) -->

<svg
   xmlns:dc="http://purl.org/dc/elements/1.1/"
   xmlns:cc="http://creativecommons.org/ns#"
   xmlns:rdf="http://www.w3.org/1999/02/22-rdf-syntax-ns#"
   xmlns:svg="http://www.w3.org/2000/svg"
   xmlns="http://www.w3.org/2000/svg"
   xmlns:sodipodi="http://sodipodi.sourceforge.net/DTD/sodipodi-0.dtd"
   xmlns:inkscape="http://www.inkscape.org/namespaces/inkscape"
   width="16px"
   height="16px"
   viewBox="0 0 16 16"
   version="1.1"
   id="SVGRoot"
   inkscape:version="0.92.3 (2405546, 2018-03-11)"
   sodipodi:docname="desenhando.svg">
  <sodipodi:namedview
     id="base"
     pagecolor="#ffffff"
     bordercolor="#666666"
     borderopacity="1.0"
     inkscape:pageopacity="0.0"
     inkscape:pageshadow="2"
     inkscape:zoom="32.25"
     inkscape:cx="8"
     inkscape:cy="8"
     inkscape:document-units="px"
     inkscape:current-layer="layer1"
     showgrid="false"
     inkscape:window-width="1366"
     inkscape:window-height="704"
     inkscape:window-x="0"
     inkscape:window-y="27"
     inkscape:window-maximized="1"
     inkscape:grid-bbox="true" />
  <defs
     id="defs1498" />
  <metadata
     id="metadata1501">
    <rdf:RDF>
      <cc:Work
         rdf:about="">
        <dc:format>image/svg+xml</dc:format>
        <dc:type
           rdf:resource="http://purl.org/dc/dcmitype/StillImage" />
        <dc:title></dc:title>
      </cc:Work>
    </rdf:RDF>
  </metadata>
  <g
     id="layer1"
     inkscape:groupmode="layer"
     inkscape:label="Camada 1">
    <path
       style="fill:#feffff;stroke-width:0.03066234;fill-opacity:1"
       d="M 2.4321951,8.9859145 C 2.4899905,8.9283892 2.5918507,8.8662504 2.658559,8.8479548 2.7376347,8.8261749 3.2253392,8.81554 4.0599968,8.817462 l 1.2801478,0.00256 0.00974,-4.1317323 c 0.00974,-4.12731208 0.00987,-4.13184753 0.07358,-4.23594511 C 5.5137246,0.30507053 5.5976579,0.24258636 5.777249,0.1889681 5.9125144,0.1486103 6.2120527,0.143998 7.9850197,0.1555288 c 1.9405319,0.012812 2.0575703,0.0163994 2.1678543,0.071491 0.157936,0.078922 0.259584,0.22212181 0.296111,0.41719748 0.01939,0.10352102 0.02712,1.58507622 0.0213,4.08311062 l -0.0091,3.9205903 1.080841,0.00385 c 1.136233,0.00385 1.41491,0.022806 1.596997,0.109799 0.307258,0.1466847 0.303924,0.5522489 -0.0075,0.911305 -0.04799,0.055348 -0.548989,0.7066338 -1.113353,1.4473478 -1.841845,2.417396 -3.1908362,4.13236 -3.4949331,4.443128 C 8.312719,15.778474 8.2025011,15.831067 7.9608217,15.831759 7.7314744,15.832473 7.5653859,15.752579 7.3753057,15.550327 7.1944076,15.357929 2.5722739,9.7416946 2.4584917,9.5761377 2.3798388,9.4617265 2.3506146,9.382741 2.3405059,9.257337 2.327822,9.1003771 2.3332031,9.0845542 2.4321502,8.9860555 Z"
       id="path880"
       inkscape:connector-curvature="0"
       sodipodi:nodetypes="ccccscccccsccscsccccccc" />
  </g>
</svg>
