<?xml version="1.0" encoding="UTF-8" standalone="no"?>
<!-- Designed by Vexels.com - 2016 All Rights Reserved - https://vexels.com/terms-and-conditions/  -->

<svg
   xmlns:osb="http://www.openswatchbook.org/uri/2009/osb"
   xmlns:dc="http://purl.org/dc/elements/1.1/"
   xmlns:cc="http://creativecommons.org/ns#"
   xmlns:rdf="http://www.w3.org/1999/02/22-rdf-syntax-ns#"
   xmlns:svg="http://www.w3.org/2000/svg"
   xmlns="http://www.w3.org/2000/svg"
   xmlns:sodipodi="http://sodipodi.sourceforge.net/DTD/sodipodi-0.dtd"
   xmlns:inkscape="http://www.inkscape.org/namespaces/inkscape"
   version="1.0"
   id="Capa_1"
   x="0px"
   y="0px"
   width="1200px"
   height="1200px"
   viewBox="0 0 1200 1200"
   enable-background="new 0 0 1200 1200"
   xml:space="preserve"
   sodipodi:docname="logo.svg"
   inkscape:version="0.92.3 (2405546, 2018-03-11)"><metadata
   id="metadata117"><rdf:RDF><cc:Work
       rdf:about=""><dc:format>image/svg+xml</dc:format><dc:type
         rdf:resource="http://purl.org/dc/dcmitype/StillImage" /></cc:Work></rdf:RDF></metadata><defs
   id="defs115"><linearGradient
   id="linearGradient6244"
   osb:paint="solid"><stop
     style="stop-color:#ffff00;stop-opacity:1;"
     offset="0"
     id="stop6242" /></linearGradient>
	
	
	
	
	
	
	
	
	
	

		
		
		
		
		
		
		
		
		
		
		
		
		
		
		
	
			
			<linearGradient
   y2="443.29669"
   x2="453.60941"
   y1="387.91211"
   x1="341.08221"
   gradientUnits="userSpaceOnUse"
   id="SVGID_2_"
   gradientTransform="matrix(-1.0949151,0,0,1.1087524,1270.0739,-14.847568)">
				<stop
   id="stop85"
   style="stop-color:#FFFFFF"
   offset="0" />
				<stop
   id="stop87"
   style="stop-color:#C4C4C4"
   offset="0.4391" />
				<stop
   id="stop89"
   style="stop-color:#F8F8F8"
   offset="1" />
			</linearGradient>
			
			
			
		
				
			
			
				
			<linearGradient
   y2="711.05658"
   x2="321.8241"
   y1="655.672"
   x1="209.297"
   gradientUnits="userSpaceOnUse"
   id="SVGID_1_"
   gradientTransform="matrix(-1.0949151,0,0,1.1087524,1270.0739,-14.847568)">
				<stop
   id="stop66"
   style="stop-color:#FFFFFF"
   offset="0" />
				<stop
   id="stop68"
   style="stop-color:#C4C4C4"
   offset="0.4391" />
				<stop
   id="stop70"
   style="stop-color:#F8F8F8"
   offset="1" />
			</linearGradient>
			
			
			
		</defs><sodipodi:namedview
   pagecolor="#ffffff"
   bordercolor="#666666"
   borderopacity="1"
   objecttolerance="10"
   gridtolerance="10"
   guidetolerance="10"
   inkscape:pageopacity="0"
   inkscape:pageshadow="2"
   inkscape:window-width="1366"
   inkscape:window-height="704"
   id="namedview113"
   showgrid="false"
   inkscape:zoom="0.35355339"
   inkscape:cx="629.31191"
   inkscape:cy="739.79301"
   inkscape:window-x="0"
   inkscape:window-y="27"
   inkscape:window-maximized="1"
   inkscape:current-layer="Capa_1" />
<g
   id="g10285"
   transform="matrix(1.0830607,0,0,1.0830607,-70.942915,-83.226407)"><path
     d="m 886.83612,581.09354 c 0,0 -110.11233,-75.28761 -239.89043,-98.33414 54.72057,18.14362 203.86991,101.50739 205.32177,102.9776 1.45185,1.47131 30.99157,0.98013 30.99157,0.98013 z"
     id="path2"
     inkscape:connector-curvature="0"
     style="fill:#333333;stroke-width:1.10181201" /><path
     sodipodi:nodetypes="ccccccccccssscssssccccc"
     d="m 1155.975,757.24214 c 0,0 -4.2833,20.77137 -33.4519,31.60055 -26.2604,9.74926 -61.7816,9.71046 -67.8387,6.20458 -6.0571,-3.50587 -14.6335,-1.54449 -14.6335,-1.54449 0,0 -130.59822,-17.25995 -121.24655,-15.26419 13.10833,2.79738 12.84774,19.98858 4.19353,19.11156 -8.65312,-0.87702 -569.19052,-31.40097 -596.10135,-7.80229 -18.96502,6.94301 -11.15061,-0.76171 -11.15061,-0.76171 L 167.77471,774.76597 c 0,0 -42.00865,-0.92181 -68.832971,-20.19858 -6.06041,-4.35544 -8.002169,-9.59329 -10.866518,-13.87674 -2.868729,-4.29 2e-6,0 -4.885033,-9.00144 -3.070691,-5.65823 -5.631627,-9.01018 -6.663761,-11.00999 -0.597039,-1.1568 -0.295968,-1.38713 -0.295968,-1.38713 0,0 -0.05296,-0.22266 1.091962,-0.43143 1.426662,-0.26014 3.353884,-0.24019 4.587534,-0.11211 17.807034,1.84872 48.257815,34.4018 65.963585,36.74065 19.90117,2.62885 212.00293,-2.62996 216.33004,-3.50587 4.3271,-0.87591 205.94696,-11.39132 205.94696,-11.39132 0,0 220.65714,1.75294 221.52322,-3.50477 0.86498,-5.2577 154.89216,20.15269 153.1622,16.64903 -1.72997,-3.50477 153.16324,-4.38179 153.16324,-4.38179 z"
     id="path4"
     inkscape:connector-curvature="0"
     style="fill:#222223;stroke-width:1.10181201" /><path
     d="m 846.44141,579.14879 c -2.48217,-1.88377 -112.30653,-94.87594 -297.82895,-103.04412 -185.52132,-8.16818 -335.67688,46.49553 -336.91742,49.63662 -1.24163,3.14332 38.90343,41.2966 70.94941,50.80747 32.04926,9.51088 562.55533,15.16774 562.55533,15.16774 z"
     id="path6"
     inkscape:connector-curvature="0"
     style="fill:#222223;stroke-width:1.10181201" /><path
     d="m 761.91506,586.43884 c 0,0 34.93217,30.91534 -4.26798,0 -88.71002,-69.9645 -257.60286,-83.7851 -382.99144,-51.82531 -0.85294,31.09607 0.85293,34.55094 0.85293,34.55094 l -17.05877,0.86372 -1.70698,-32.82351 c 0,0 -52.8833,11.22945 -72.50308,20.73035 -19.61979,9.5009 -6.82351,19.86662 -6.82351,19.86662 l 411.13952,27.64009 z"
     id="path8"
     inkscape:connector-curvature="0"
     style="fill:#333333;stroke-width:1.10181201" /><path
     d="m 107.92994,830.23131 c 0,-2.41042 223.41742,-13.78733 503.8219,-13.78733 280.40228,0 511.60896,11.3758 511.60896,13.78733 0,2.41265 -227.83434,1.19302 -508.23772,1.19302 -280.40338,0 -507.19314,1.21963 -507.19314,-1.19302 z"
     id="path10"
     inkscape:connector-curvature="0"
     style="opacity:0.3;fill:#ffffff;stroke-width:1.10181201" /><g
     transform="matrix(-1.0949151,0,0,1.1087524,1270.0739,-14.847568)"
     id="g16">
		<path
   d="m 164.585,714.238 19.27,-8.717 150.489,-6.423 21.105,11.93 c 0,0 10.094,-11.928 13.305,-17.434 3.212,-5.506 -42.669,-119.75 -44.045,-119.75 -1.377,0 -113.785,9.634 -113.785,9.634 0,0 -68.083,38.953 -67.076,39.435 1.007,0.482 -9.087,50.951 -8.169,54.621 0.919,3.672 28.906,36.704 28.906,36.704 z"
   id="path12"
   inkscape:connector-curvature="0" />
		<path
   d="m 832.151,708.274 c 1.374,-0.46 19.27,-5.966 22.481,-6.423 3.211,-0.46 149.572,-6.423 149.112,-6.423 -0.457,0 18.811,7.8 18.811,7.8 0,0 11.47,-11.47 11.47,-12.847 0,-1.377 -24.315,-95.89 -24.315,-95.89 L 894.546,580.268 c 0,0 -63.772,23.857 -65.608,26.151 -1.836,2.294 -24.317,55.058 -24.317,55.058 z"
   id="path14"
   inkscape:connector-curvature="0" />
	</g><path
     style="fill:#2e2e2f;stroke-width:1.10181201"
     inkscape:connector-curvature="0"
     id="path18"
     d="m 529.94306,480.05404 c 0,0 15.12407,73.57016 32.76753,94.42025 -11.8207,0.75728 -43.14294,-2.76301 -43.14294,-2.76301 l -16.65037,-92.16283 c 0,-10e-4 20.81871,0.0654 27.02578,0.50559 z" /><path
     style="fill:#009076;fill-opacity:1;stroke-width:1.10181201"
     inkscape:connector-curvature="0"
     id="path20"
     d="m 76.781792,668.99987 c 8.364057,-11.12966 12.382395,-35.04102 10.780534,-45.35352 -1.601861,-10.30918 1.42558,-23.55656 1.42558,-23.55656 0,0 4.582223,-21.88566 8.840343,-26.23862 4.262511,-4.35629 -1.88982,-5.47835 -7.996164,-8.8168 -6.108531,-3.34067 -0.875932,-6.66915 3.108464,-6.79665 3.98221,-0.12751 11.394781,-0.67745 11.394781,-0.67745 11.31814,-0.8238 39.2976,-13.82614 122.5429,-42.96083 83.23983,-29.12692 172.03087,-52.4329 335.23563,-43.64825 163.20914,8.78686 264.41762,92.88129 287.30901,105.27493 22.89139,12.39696 37.41325,4.8652 37.41325,4.8652 0,0 0,0 9.74803,0.70295 20.04789,-0.66414 27.21849,0.51003 72.26001,9.67719 61.08534,2.70758 108.54004,20.24582 130.33864,36.26397 33.2581,7.38651 57.0429,27.08127 57.0429,27.08127 6.0987,6.01942 3.4764,4.98052 4.3008,9.6018 0.8245,4.62239 -7.7421,37.84726 -7.7421,37.84726 0,0 6.8947,20.85674 2.0836,22.83809 -4.811,1.97912 -6.2224,4.48601 -10.2747,14.77079 24.9904,13.59442 10.5277,21.15057 -0.5047,27.62014 -11.0335,6.46735 -40.052,14.21642 -54.7764,11.174 9.2181,-31.60166 2.8139,-66.71696 -3.3023,-80.41892 -6.1173,-13.69752 -23.6753,-60.77183 -95.30904,-60.274 -99.22997,5.04705 -105.69873,109.9195 -105.23996,122.13019 -0.16423,8.982 -2.15588,12.71739 -2.15588,12.71739 0,0 -2.93547,2.28846 -9.85315,0.98679 -17.27447,-4.42725 -452.22183,-8.49194 -452.22183,-8.49194 0,0 -38.75999,-0.1397 -53.32237,5.44398 -14.56675,5.58589 -13.40066,-6.85763 -14.54266,-20.58399 -1.14199,-13.72968 -12.13275,-109.07463 -100.90628,-109.32964 -97.41569,4.41949 -97.98395,100.75677 -97.13539,108.63334 0.85184,7.8788 3.84643,18.41416 -17.75843,13.37378 -21.60486,-5.0415 -37.18113,-13.19527 -37.18113,-13.19527 0,0 -13.986443,-19.00956 -17.044541,-25.91819 -3.058098,-6.91086 -1.219736,-9.49868 -1.219736,-9.49868 0,0 -3.723806,-13.97694 -8.293982,-25.35163 -4.565796,-11.36693 -3.936219,-13.16976 2.956271,-19.89212 z M 237.82848,530.60428 c 1.81974,2.55013 21.62895,24.00449 77.4948,27.88734 55.86585,3.88064 276.26132,17.45509 276.26132,17.45509 0,0 74.98416,2.45034 143.15029,3.75867 l 58.8703,1.16641 c 16.22445,0.28384 25.55641,0.49229 31.27078,0.0854 0,0 -108.49733,-82.59762 -224.82878,-93.908 C 498.6263,476.33643 412.28677,473.141 270.99564,518.32266 c -32.52335,11.03431 -34.98363,9.7282 -33.16716,12.28165 z" /><path
     style="fill:#ffc000;fill-opacity:1;stroke-width:1.10181201"
     inkscape:connector-curvature="0"
     id="path22"
     d="m 1041.7337,608.85116 c 0,0 33.6413,22.34136 52.0414,33.22044 18.4011,10.8824 18.4011,10.8824 18.4011,10.8824 0,0 15.4241,1.24402 14.4792,1.22739 -0.9461,-0.02 -13.6263,-13.34494 -32.6351,-25.51572 -19.0088,-12.16745 -43.1648,-18.68469 -52.2866,-19.81451 z" /><path
     style="fill:#ffc000;fill-opacity:1;stroke-width:1.10181201"
     inkscape:connector-curvature="0"
     id="path24"
     d="m 1151.2384,704.83807 c 0.081,-0.62201 -24.6279,0.58542 -27.5273,0.74175 -2.8982,0.1519 -4.3315,-0.71071 -2.9595,3.50366 1.3708,4.21659 1.6839,9.66721 1.6839,9.66721 0,0 8.0575,0.56879 14.5066,-1.40368 0,0 4.4738,-2.45256 7.7925,-3.07013 3.3165,-0.61647 5.9344,-4.93506 6.5038,-9.43881 z" /><path
     style="fill:#3c3c3c;fill-opacity:1;stroke-width:1.10181201"
     inkscape:connector-curvature="0"
     id="path26"
     d="m 793.82417,579.74419 c 0,0 -6.28152,-13.33497 -12.70211,-19.11822 -6.42058,-5.78658 -9.16444,-8.67044 -19.76212,-6.9796 -10.59768,1.68753 -15.84452,-0.29825 -17.30075,11.32037 -1.45514,11.61529 -4.91398,13.75185 -0.92083,16.34412 3.99425,2.59226 5.83262,3.88617 4.85048,6.70019 -0.98433,2.8129 24.26551,-1.43029 27.03236,0.19403 2.76685,1.62432 3.02634,4.46162 1.38068,9.46653 16.16643,-0.32819 32.97556,-1.8993 32.97556,-1.8993 0,0 -21.61143,-7.64374 -17.54601,-9.13833 4.0687,-1.50236 1.99274,-6.88979 1.99274,-6.88979 z" /><path
     style="fill:#000000;fill-opacity:1;stroke-width:1.10181201"
     inkscape:connector-curvature="0"
     id="path28"
     d="m 620.84949,607.02393 c -0.87046,-0.46013 -22.36802,-0.41911 -27.95209,-0.83821 -5.58845,-0.42133 -7.43229,-1.39925 -9.27612,-2.69538 -1.84165,-1.29392 -4.04024,-0.0754 -8.69801,-0.16188 -4.65777,-0.0909 -3.80373,4.02034 0.20585,5.66905 4.01177,1.64872 46.26016,2.44037 46.26016,2.44037 0,0 4.38404,-1.80727 -0.53979,-4.41395 z" /><path
     style="fill:#000000;fill-opacity:1;stroke-width:1.10181201"
     inkscape:connector-curvature="0"
     id="path30"
     d="m 362.77143,597.7725 c -0.87046,-0.46013 -22.36693,-0.41911 -27.95319,-0.84043 -5.58625,-0.41911 -7.43228,-1.39592 -9.27612,-2.68984 -1.84164,-1.29058 -4.03804,-0.0732 -8.698,-0.16409 -4.65996,-0.0854 -3.80374,4.02034 0.20803,5.67127 4.00849,1.64871 46.25798,2.44036 46.25798,2.44036 0,0 4.38513,-1.80505 -0.5387,-4.41727 z" /><path
     style="fill:#ffffff;fill-opacity:0.17030568;stroke-width:1.10181201"
     inkscape:connector-curvature="0"
     id="path32"
     d="m 1041.7337,608.85116 c -1.7693,-0.36478 -77.02394,-10.48326 -189.81005,-11.6541 -0.002,0 -44.13821,0.4313 -44.13821,0.4313 0,0 38.33188,-5.88969 101.71213,-5.01488 60.07471,0.83045 107.05533,0.34482 141.15973,13.03338 31.1755,11.59755 42.8199,20.63056 42.8199,20.63056 0,0 -28.6856,-12.67748 -51.7435,-17.42626 z" /><path
     style="fill:#ffffff;fill-opacity:0.13100436;stroke-width:1.10181201"
     inkscape:connector-curvature="0"
     id="path34"
     d="m 829.66731,730.87601 c 1.55697,0.32597 -137.21914,-4.14008 -282.14319,-8.81236 -100.20444,-3.44268 -164.82633,-12.8571 -164.82633,-12.8571 0,0 43.91376,-18.31104 149.05626,-10.47882 105.14251,7.83112 251.04323,22.28593 297.91326,32.14828 z" /><path
     style="fill:#ffc000;fill-opacity:1;stroke-width:1.10181201"
     inkscape:connector-curvature="0"
     id="path36"
     d="m 155.5467,579.33728 c -0.14015,-0.002 -0.56169,-0.008 -1.22411,-0.02 -8.53815,-0.12973 -56.908221,-0.8227 -57.592541,-0.83489 -0.74016,-0.0144 -12.128373,16.97278 -8.814065,37.72641 12.272906,1.97247 19.974536,-1.86936 36.159576,-12.03662 16.19051,-10.16504 30.90945,-24.84271 30.90945,-24.84271" /><path
     style="fill:#ffffff;fill-opacity:0.09170305;stroke-width:1.10181201"
     inkscape:connector-curvature="0"
     id="path38"
     d="m 422.11035,590.77073 c 2.82488,0.63753 -27.12433,-3.43713 -64.67335,-6.48731 -37.54573,-3.04574 -208.10066,-8.5895 -241.662,-8.04843 10.49805,-3.4837 20.09498,-5.31093 34.10114,-12.77727 17.40696,-9.28358 131.55952,1.2407 144.79595,5.0038 13.23314,3.76311 82.67813,12.25726 127.43826,22.30921 z" /><g
     transform="matrix(-1.0949151,0,0,1.1087524,1270.0739,-14.847568)"
     style="opacity:0.3"
     id="g50">
			<path
   style="fill:#ffffff"
   inkscape:connector-curvature="0"
   id="path40"
   d="m 394.888,540.544 c -7.055,6.682 -11.59,18.214 -12.8,32.687 -2.064,24.706 -0.984,92.266 5.988,123.515 l 1.051,-0.232 c -6.833,-30.632 -7.972,-99.174 -5.965,-123.192 1.237,-14.8 5.971,-26.449 13.33,-32.797 0.065,-0.053 0.114,-0.097 0.165,-0.144 0.852,-0.095 1.689,-0.212 2.48,-0.371 l -0.212,-1.054 c -9.119,1.834 -23.79,-0.946 -23.937,-0.974 l -0.203,1.058 c 0.455,0.086 8.586,1.628 16.561,1.628 1.193,0 2.38,-0.044 3.542,-0.124 z" />
			<path
   style="fill:#b6b8ba"
   inkscape:connector-curvature="0"
   id="path42"
   d="m 1071.591,571.355 c -0.033,0.23 -3.191,23.062 -5.25,31.52 -1.944,7.99 -4.596,11.327 -24.914,14.679 -19.511,3.222 -40.827,4.519 -42.135,4.19 l -0.194,0.502 -0.289,0.453 c 0.155,0.099 0.789,0.146 1.812,0.146 6.001,0 25.413,-1.657 40.982,-4.227 19.929,-3.288 23.579,-6.421 25.784,-15.487 2.073,-8.509 5.241,-31.397 5.27,-31.626 z" />
			<path
   style="fill:#ffffff"
   inkscape:connector-curvature="0"
   id="path44"
   d="m 958.19,491.471 c -1.326,2.171 -13.739,20.039 -65.887,27.426 -0.594,-1.348 -1.074,-2.526 -1.412,-3.361 -0.267,-0.659 -0.455,-1.114 -0.55,-1.295 l -0.952,0.5 c 0.086,0.168 0.256,0.59 0.504,1.199 0.32,0.784 0.76,1.87 1.304,3.109 -4.079,0.561 -8.388,1.06 -12.957,1.479 -37.846,3.481 -132.376,9.606 -214.085,14.52 0.309,-1.326 0.585,-2.47 0.813,-3.394 l 0.092,-0.38 -1.049,-0.241 -0.089,0.365 c -0.246,0.999 -0.547,2.247 -0.89,3.719 -62.702,3.767 -117.647,6.812 -133.287,7.38 -37.217,1.357 -51.109,0.959 -51.189,0.955 l -0.037,0.354 -0.008,-0.358 -0.335,0.009 -0.299,0.548 0.165,0.267 c 0.051,0.082 0.095,0.152 0.491,0.208 l 10e-4,0.044 -10e-4,-0.044 c 0.579,0.077 1.912,0.122 5.132,0.122 1.662,0 3.828,-0.011 6.653,-0.035 7.425,-0.068 20.3,-0.292 39.467,-0.99 15.617,-0.57 70.413,-3.604 132.996,-7.365 -3.392,14.765 -10.31,49.005 -11.812,88.259 -1.656,43.266 0.524,62.454 1.117,66.71 -33.656,0.652 -62.283,1.182 -62.902,1.195 l -238.032,5.263 0.024,1.078 238.031,-5.266 c 1.339,-0.027 134.276,-2.493 164.844,-3.339 31.378,-0.871 34.818,-2.663 61.387,-31.96 26.902,-29.669 80.439,-101.799 87.099,-111.223 6.165,-8.713 4.901,-10.264 -0.015,-13.852 -0.552,-0.404 -1.149,-0.84 -1.781,-1.326 -3.31,-2.552 -6.11,-7.754 -7.977,-11.834 52.388,-7.504 64.996,-25.676 66.344,-27.885 l -0.424,-0.336 z m -58.106,41.132 c 0.641,0.495 1.244,0.937 1.805,1.346 4.426,3.228 5.615,4.097 -0.23,12.361 -6.656,9.415 -60.146,81.484 -87.02,111.121 -26.277,28.975 -29.675,30.749 -60.618,31.607 -16.314,0.451 -61.787,1.363 -100.849,2.121 -0.551,-3.851 -2.802,-22.874 -1.127,-66.646 1.51,-39.448 8.498,-73.817 11.854,-88.37 81.798,-4.919 176.536,-11.057 214.44,-14.541 4.7,-0.433 9.126,-0.948 13.313,-1.529 1.911,4.222 4.861,9.781 8.432,12.53 z" />
			<path
   style="fill:#ffffff"
   inkscape:connector-curvature="0"
   id="path46"
   d="m 543.939,463.029 c 78.822,-23.367 157.495,-20.691 199.758,-19.254 l 5.43,0.182 c 0.886,0.035 90.054,3.964 198.426,41.91 0.526,0.238 1.052,0.475 1.578,0.712 l 0.561,0.782 c 0.141,-0.104 0.265,-0.232 0.402,-0.348 58.588,26.415 110.512,49.13 111.038,49.362 l 0.431,-0.988 c -0.526,-0.23 -52.216,-22.843 -110.682,-49.197 1.35,-1.676 2.106,-4.022 2.638,-5.701 0.205,-0.641 0.46,-1.441 0.59,-1.595 l -0.393,-0.37 -0.387,-0.374 c -0.281,0.291 -0.468,0.858 -0.835,2.013 -0.53,1.676 -1.299,4.06 -2.627,5.568 -0.639,-0.285 -1.275,-0.573 -1.914,-0.862 -108.575,-38.02 -197.894,-41.952 -198.787,-41.987 l -5.433,-0.182 c -42.323,-1.441 -121.11,-4.12 -200.1,19.298 -81.668,24.213 -144.3,75.339 -144.923,75.852 l 0.684,0.831 c 0.622,-0.514 63.084,-51.501 144.545,-75.652 z" />
			<path
   style="fill:#ffffff"
   inkscape:connector-curvature="0"
   id="path48"
   d="m 152.661,598.31 0.082,1.076 c 0.235,-0.02 23.605,-1.785 30.008,-0.835 6.426,0.948 18.089,4.229 18.206,4.262 l 0.292,-1.036 c -0.118,-0.033 -11.846,-3.332 -18.341,-4.291 -6.52,-0.968 -29.281,0.752 -30.247,0.824 z" />
		</g><g
     transform="matrix(-1.0949151,0,0,1.1087524,1270.0739,-14.847568)"
     id="g62">
			<path
   style="fill:#b6b8ba"
   inkscape:connector-curvature="0"
   id="path52"
   d="m 394.831,539.987 c -7.055,6.68 -11.59,18.214 -12.799,32.689 -2.064,24.701 -0.985,92.262 5.988,123.513 l 1.05,-0.232 c -6.833,-30.634 -7.972,-99.171 -5.965,-123.19 1.238,-14.805 5.971,-26.452 13.33,-32.8 0.065,-0.055 0.114,-0.097 0.165,-0.144 0.852,-0.095 1.69,-0.212 2.48,-0.371 l -0.212,-1.056 c -9.119,1.834 -23.789,-0.944 -23.937,-0.972 l -0.203,1.056 c 0.454,0.088 8.585,1.629 16.56,1.629 1.194,0 2.381,-0.042 3.543,-0.122 z" />
			<path
   style="fill:#a9abae"
   inkscape:connector-curvature="0"
   id="path54"
   d="m 1071.536,570.798 c -0.033,0.228 -3.193,23.062 -5.252,31.518 -1.944,7.992 -4.594,11.329 -24.914,14.681 -19.511,3.219 -40.825,4.521 -42.135,4.189 l -0.192,0.499 -0.292,0.453 c 0.157,0.099 0.789,0.15 1.814,0.15 6.001,0 25.413,-1.659 40.98,-4.231 19.929,-3.286 23.579,-6.419 25.784,-15.485 2.073,-8.512 5.239,-31.397 5.272,-31.626 z" />
			<path
   style="fill:#b6b8ba"
   inkscape:connector-curvature="0"
   id="path56"
   d="m 958.135,490.913 c -1.328,2.171 -13.74,20.04 -65.887,27.427 -0.594,-1.349 -1.074,-2.526 -1.414,-3.361 -0.267,-0.659 -0.453,-1.114 -0.55,-1.295 l -0.952,0.499 c 0.088,0.168 0.259,0.59 0.504,1.2 0.318,0.784 0.762,1.869 1.304,3.108 -4.077,0.561 -8.385,1.061 -12.955,1.48 -37.849,3.481 -132.377,9.606 -214.086,14.52 0.309,-1.326 0.585,-2.47 0.813,-3.394 l 0.092,-0.382 -1.049,-0.239 -0.088,0.362 c -0.246,1.001 -0.547,2.247 -0.89,3.721 -62.703,3.767 -117.648,6.812 -133.287,7.38 -37.217,1.357 -51.109,0.959 -51.19,0.955 l -0.037,0.354 -0.008,-0.36 -0.335,0.009 -0.299,0.55 0.165,0.265 c 0.052,0.084 0.096,0.155 0.491,0.208 l 0.002,0.046 -0.002,-0.046 c 0.579,0.08 1.913,0.124 5.132,0.124 1.662,0 3.828,-0.011 6.653,-0.035 7.425,-0.068 20.3,-0.294 39.468,-0.992 15.616,-0.568 70.413,-3.604 132.995,-7.362 -3.392,14.762 -10.308,49.005 -11.81,88.257 -1.656,43.268 0.524,62.458 1.117,66.712 -33.656,0.652 -62.283,1.182 -62.902,1.193 l -238.032,5.266 0.024,1.076 238.03,-5.266 c 1.339,-0.024 134.274,-2.49 164.844,-3.336 31.374,-0.871 34.819,-2.663 61.383,-31.96 26.907,-29.672 80.442,-101.801 87.104,-111.225 6.163,-8.71 4.901,-10.261 -0.016,-13.85 -0.552,-0.404 -1.149,-0.84 -1.783,-1.328 -3.31,-2.55 -6.11,-7.751 -7.977,-11.832 52.388,-7.504 64.994,-25.676 66.346,-27.885 l -0.424,-0.336 z m -58.111,41.133 c 0.643,0.495 1.249,0.937 1.808,1.343 4.426,3.231 5.615,4.099 -0.23,12.361 -6.653,9.417 -60.148,81.484 -87.02,111.121 -26.275,28.977 -29.675,30.749 -60.617,31.609 -16.314,0.451 -61.787,1.363 -100.851,2.121 -0.551,-3.851 -2.8,-22.876 -1.125,-66.646 1.51,-39.451 8.498,-73.819 11.854,-88.37 81.797,-4.919 176.537,-11.057 214.438,-14.541 4.7,-0.433 9.128,-0.949 13.313,-1.53 1.914,4.224 4.862,9.783 8.43,12.532 z" />
			<path
   style="fill:#b6b8ba"
   inkscape:connector-curvature="0"
   id="path58"
   d="m 543.882,462.472 c 78.823,-23.367 157.494,-20.691 199.758,-19.255 l 5.429,0.183 c 0.888,0.033 90.058,3.963 198.427,41.909 0.528,0.237 1.054,0.476 1.578,0.712 l 0.561,0.781 c 0.141,-0.102 0.267,-0.23 0.4,-0.347 58.591,26.415 110.515,49.13 111.04,49.36 l 0.431,-0.985 c -0.524,-0.23 -52.214,-22.843 -110.683,-49.197 1.348,-1.676 2.108,-4.022 2.641,-5.702 0.203,-0.642 0.457,-1.44 0.588,-1.594 l -0.391,-0.371 -0.387,-0.375 c -0.281,0.291 -0.469,0.858 -0.837,2.014 -0.53,1.676 -1.297,4.06 -2.627,5.568 -0.639,-0.287 -1.275,-0.574 -1.914,-0.862 C 839.321,446.29 750.002,442.359 749.109,442.324 l -5.432,-0.183 c -42.325,-1.441 -121.112,-4.119 -200.1,19.299 -81.668,24.213 -144.3,75.339 -144.923,75.852 l 0.685,0.831 c 0.62,-0.513 63.083,-51.502 144.543,-75.651 z" />
			<path
   style="fill:#a3a5a8"
   inkscape:connector-curvature="0"
   id="path60"
   d="m 152.604,597.754 0.082,1.074 c 0.235,-0.018 23.606,-1.783 30.009,-0.833 6.426,0.946 18.089,4.229 18.206,4.262 l 0.292,-1.039 c -0.118,-0.031 -11.846,-3.332 -18.341,-4.289 -6.52,-0.967 -29.281,0.752 -30.248,0.825 z" />
		</g><ellipse
     transform="matrix(-0.9998245,-0.01873426,-0.01826972,0.99983309,0,0)"
     cx="-1005.7956"
     cy="717.53595"
     rx="93.599808"
     ry="94.001343"
     id="ellipse64"
     style="fill:#222223;stroke-width:1.1017803" /><path
     d="m 922.21611,734.95068 c 0.71279,-38.97154 32.74891,-69.97559 71.55381,-69.24603 38.80488,0.72956 69.68368,32.9111 68.97088,71.88264 -0.7139,38.97375 -32.75,69.9778 -71.55489,69.24935 -38.8038,-0.72956 -69.68369,-32.91443 -68.9698,-71.88596 z"
     id="path73"
     style="fill:url(#SVGID_1_);stroke-width:1.10181201"
     inkscape:connector-curvature="0" /><g
     transform="matrix(-1.0949151,0,0,1.1087524,1270.0739,-14.847568)"
     id="g77">
				<path
   d="m 236.212,674.398 c 1.306,-0.683 2.206,-5.478 -0.805,-7.895 -3.012,-2.417 -18.016,-11.534 -22.15,-12.283 -4.134,-0.745 -9.412,-0.977 -9.098,-1.807 0.263,-0.696 0.118,-4.751 0.354,-6.233 -1.306,3.021 -8.829,18.214 -9.714,25.855 -0.198,1.71 19.82,2.271 27.076,2.466 7.255,0.195 13.033,0.582 14.337,-0.103 z m -31.519,-28.754 c -0.078,0.055 -0.135,0.252 -0.18,0.535 0.161,-0.374 0.233,-0.573 0.18,-0.535 z m 64.78,26.984 0.012,0.658 c 4.297,0.581 6.348,4.497 14.428,4.678 8.078,0.181 25.435,-6.074 25.435,-6.074 0,0 0,0 3.029,3.405 0.391,-5.612 -5.566,-24.62 -6.061,-24.613 -0.493,0.009 -5.876,3.076 -12.9,6.503 -7.023,3.427 -22.305,14.917 -23.943,15.443 z m -14.392,-11.766 c 4.076,-2.38 6.495,-5.228 7.829,-13.328 1.334,-8.103 2.752,-20.491 2.752,-20.491 0,0 -0.559,-3.449 0.915,-3.973 1.474,-0.521 4.776,-0.254 5.27,-0.263 0.494,-0.009 -14.446,-5.668 -29.695,-1.425 -1.588,0.44 8.721,34.781 9.25,36.581 0.527,1.807 -0.398,5.283 3.679,2.899 z m -13.92,31.575 c -1.825,-0.625 -5.571,1.752 -10.111,5.791 -4.54,4.039 -16.624,19.098 -16.624,19.098 2.712,4.07 16.212,12.062 16.212,12.062 0,0 11.777,-31.536 13.047,-34.194 1.27,-2.659 -0.699,-2.131 -2.524,-2.757 z m 33.07,-12.15 c -4.316,-1.732 -12.453,-4.879 -11.495,-6.545 0.959,-1.666 2.074,-3.829 5.835,-5.383 3.762,-1.551 5.672,-5.215 7.124,-6.89 1.452,-1.675 23.003,-21.685 23.003,-21.685 0,0 -12.739,-11.469 -17.712,-13.025 -6.823,14.302 -17.189,33.117 -20.753,36.482 -3.562,3.361 -8.405,8.889 -9.631,4.958 -1.227,-3.933 -3.684,-11.965 -8.557,-16.985 -4.872,-5.018 -10.963,-22.375 -10.963,-22.375 l 4.662,-6.352 c 0,0 -17.488,8.071 -24.114,15.117 9.551,8.394 27.807,24.041 30.25,31.414 2.444,7.371 4.288,8.987 0.663,9.053 -3.624,0.066 -12.843,0.731 -12.843,0.731 0,0 -8.161,4.273 -17.882,4.455 -9.722,0.179 -16.289,1.62 -16.279,2.112 0.009,0.493 6.563,16.197 7.939,19.299 13.526,-8.324 27.252,-14.84 29.866,-16.044 2.615,-1.202 8.021,-2.948 12.318,-2.371 4.296,0.579 6.433,0.21 5.648,2.369 -0.361,0.992 -4.25,10.792 -3.823,16.06 0.426,5.266 -2.524,23.944 -2.84,24.609 -0.318,0.667 -1.237,4.475 -1.237,4.475 l 19.952,0.457 c 0,0 -7.149,-30.031 -6.058,-33.348 1.093,-3.319 2.842,-15.711 4.328,-15.576 1.485,0.137 9.679,6.415 10.676,6.892 0.997,0.473 4.927,-0.917 8.931,1.644 4.003,2.563 21.135,10.982 22.466,11.616 1.33,0.634 8.321,-13.505 8.907,-17.469 -8.594,-1.323 -34.065,-5.961 -38.381,-7.695 z m -9.037,11.598 c -0.486,0.157 -4.721,4.068 -1.742,10.646 2.979,6.58 15.268,25.336 15.268,25.336 0,0 10.536,-4.176 18.08,-10.131 -9.014,-7.287 -24.484,-21.491 -27.069,-23.281 0.001,0 -3.522,-2.897 -4.537,-2.57 z"
   id="path75"
   inkscape:connector-curvature="0"
   style="fill:#414042" />
			</g><path
     d="m 158.94532,734.51494 c 0.94819,-51.90957 43.61813,-93.20395 95.3036,-92.23157 51.68656,0.96794 92.81814,43.83341 91.86775,95.74409 -0.94819,51.90957 -43.62141,93.20062 -95.30798,92.23268 -51.68218,-0.97238 -92.81376,-43.83674 -91.86337,-95.7452 z"
     id="path83"
     inkscape:connector-curvature="0"
     style="fill:#222223;stroke-width:1.10181201" /><path
     d="m 182.26591,734.95068 c 0.71608,-38.97154 32.7511,-69.97559 71.55709,-69.24603 38.80379,0.72956 69.68258,32.9111 68.9687,71.88264 -0.71389,38.97375 -32.74782,69.9778 -71.5527,69.24935 -38.8038,-0.72956 -69.68478,-32.91443 -68.97309,-71.88596 z"
     id="path92"
     style="fill:url(#SVGID_2_);stroke-width:1.10181201"
     inkscape:connector-curvature="0" /><path
     style="fill:#414042;stroke-width:1.10181201"
     inkscape:connector-curvature="0"
     id="path94"
     d="m 271.49383,732.89283 c -1.42996,-0.75728 -2.41648,-6.07374 0.8836,-8.7536 3.29788,-2.67985 19.72489,-12.78835 24.25127,-13.6188 4.52638,-0.82603 10.30644,-1.08326 9.96044,-2.00352 -0.28577,-0.77169 -0.1281,-5.26768 -0.38431,-6.91085 1.42777,3.34954 9.66591,20.19481 10.63272,28.66679 0.21789,1.89597 -21.70122,2.51798 -29.64483,2.73418 -7.9447,0.21621 -14.26893,0.6453 -15.69889,-0.1142 z m 34.50953,-31.88107 c 0.0843,0.061 0.15001,0.27941 0.20037,0.59319 -0.17847,-0.41468 -0.2584,-0.63532 -0.20037,-0.59319 z m -70.9275,29.91858 -0.012,0.72956 c -4.70594,0.64418 -6.95052,4.98606 -15.79634,5.18674 -8.848,0.20069 -27.85135,-6.73456 -27.85135,-6.73456 0,0 0,0 -3.3165,3.7753 -0.42592,-6.22232 6.09649,-27.29748 6.63628,-27.28972 0.54198,0.01 6.43263,3.41052 14.12441,7.21022 7.69068,3.79969 24.42208,16.53926 26.21555,17.12246 z m 15.75692,-13.04558 c -4.46178,-2.63883 -7.10819,-5.79656 -8.5699,-14.77745 -1.46171,-8.98422 -3.0143,-22.71945 -3.0143,-22.71945 0,0 0.61206,-3.82409 -1.00185,-4.40507 -1.6139,-0.57766 -5.22822,-0.28163 -5.7702,-0.2916 -0.54198,-0.01 15.81824,-6.28441 32.51131,-1.57998 1.74201,0.48785 -9.54656,38.56352 -10.12468,40.55928 -0.57811,2.00351 0.43578,5.85753 -4.03038,3.21427 z m 15.24232,35.00886 c 1.99822,-0.69297 6.10196,1.94253 11.07068,6.42078 4.96982,4.47825 18.20297,21.17495 18.20297,21.17495 -2.96832,4.51263 -17.75296,13.37378 -17.75296,13.37378 0,0 -12.89262,-34.96562 -14.28426,-37.91268 -1.39054,-2.94818 0.76535,-2.36276 2.76357,-3.05683 z m -36.20885,-13.47135 c 4.72785,-1.92036 13.63498,-5.4096 12.58824,-7.25678 -1.05221,-1.84718 -2.27195,-4.24541 -6.39211,-5.96841 -4.11798,-1.71968 -6.20817,-5.78215 -7.79799,-7.63931 -1.58981,-1.85716 -25.18742,-24.04329 -25.18742,-24.04329 0,0 13.94812,-12.71629 19.39313,-14.4415 7.47061,15.85737 18.8205,36.71855 22.72277,40.4495 3.90009,3.72652 9.20277,9.8557 10.54623,5.49719 1.34236,-4.36072 4.03366,-13.26622 9.36809,-18.83215 5.33662,-5.56372 12.00465,-24.80834 12.00465,-24.80834 l -5.10668,-7.04279 c 0,0 19.14897,8.94874 26.40497,16.76101 -10.45863,9.30686 -30.44521,26.65551 -33.12337,34.83034 -2.67379,8.17262 -4.6939,9.96436 -0.72374,10.03754 3.96797,0.0732 14.0609,0.8105 14.0609,0.8105 0,0 8.93669,4.7377 19.57708,4.93949 10.64805,0.19847 17.83507,1.79618 17.82631,2.34168 -0.01,0.54662 -7.18593,17.95847 -8.69034,21.39782 -14.81092,-9.22926 -29.84082,-16.45389 -32.70292,-17.78883 -2.86211,-1.33272 -8.78451,-3.2686 -13.48498,-2.62885 -4.70594,0.64197 -7.04468,0.23284 -6.18627,2.62664 0.39417,1.09988 4.6523,11.96565 4.18805,17.80656 -0.46972,5.83869 2.76028,26.54797 3.10847,27.28529 0.34818,0.73953 1.35222,4.96166 1.35222,4.96166 l -21.84465,0.5067 c 0,0 7.82645,-33.29694 6.6319,-36.97467 -1.19565,-3.67995 -3.11175,-17.41961 -4.73989,-17.26993 -1.62595,0.1519 -10.59659,7.11265 -11.68494,7.64152 -1.09382,0.52444 -5.39793,-1.01672 -9.78197,1.82279 -4.38185,2.84173 -23.14103,12.17632 -24.60055,12.87927 -1.45405,0.70295 -9.1086,-14.9737 -9.75022,-19.3688 9.4097,-1.46688 37.30047,-6.60927 42.02503,-8.53185 z m 9.89585,12.85931 c 0.52993,0.17408 5.16799,4.51041 1.90624,11.80378 -3.26394,7.29559 -16.71826,28.09135 -16.71826,28.09135 0,0 -11.53602,-4.63015 -19.79497,-11.23277 9.86847,-8.07948 26.809,-23.8282 29.63936,-25.81286 0,0 3.8541,-3.21206 4.96763,-2.8495 z" /><path
     d="m 745.16834,571.59929 c 1.6785,0 34.91574,5.77882 34.91574,5.77882 0,0 -31.89378,1.02005 -33.23724,1.02005 -1.34236,0.001 -1.6785,-6.79887 -1.6785,-6.79887 z"
     id="path104"
     inkscape:connector-curvature="0"
     style="fill:#ffffff;fill-opacity:0.06637166;stroke-width:1.10181201" /><path
     d="m 746.17566,583.49842 c -0.54527,-1.28837 34.91575,-1.36044 35.92307,-0.34038 1.00732,1.02005 0,8.15931 0,8.15931 0,0 1.6796,-7.13926 -7.72244,-7.13926 -9.40094,0 -27.19331,1.70083 -28.20063,-0.67967 z"
     id="path106"
     inkscape:connector-curvature="0"
     style="fill:#000000;fill-opacity:0.19911505;stroke-width:1.10181201" /><path
     d="m 752.55354,556.98039 c -1.37959,0.59873 28.20173,16.6579 28.20173,16.6579 l -9.39985,-16.99828 c 0,0 -11.75172,-2.71867 -18.80188,0.34038 z"
     id="path108"
     inkscape:connector-curvature="0"
     style="fill:#ffffff;fill-opacity:0.09734515;stroke-width:1.10181201" /></g>
</svg>